<mxfile host="app.diagrams.net" modified="2021-09-01T10:19:49.457Z" agent="5.0 (Windows NT 10.0; Win64; x64) AppleWebKit/537.36 (KHTML, like Gecko) Chrome/92.0.4515.159 Safari/537.36" etag="zjOxWd9E1bU6En1_Gxr3" version="15.0.4" type="github">
  <diagram id="CYmDKQYZFAoHOZ8jSnAJ" name="Page-1">
    <mxGraphModel dx="1422" dy="762" grid="1" gridSize="10" guides="1" tooltips="1" connect="1" arrows="1" fold="1" page="1" pageScale="1" pageWidth="827" pageHeight="1169" math="0" shadow="0">
      <root>
        <mxCell id="0" />
        <mxCell id="1" parent="0" />
        <mxCell id="tUkSYDIY76sarr-EbFne-12" value="Location" style="edgeStyle=orthogonalEdgeStyle;rounded=0;orthogonalLoop=1;jettySize=auto;html=1;entryX=1;entryY=0.75;entryDx=0;entryDy=0;" parent="1" edge="1">
          <mxGeometry relative="1" as="geometry">
            <Array as="points">
              <mxPoint x="546" y="307" />
            </Array>
            <mxPoint x="546" y="212.25" as="sourcePoint" />
            <mxPoint x="340" y="307.75" as="targetPoint" />
          </mxGeometry>
        </mxCell>
        <mxCell id="LNm-DCe0OfhqSC1g2N3G-4" style="edgeStyle=orthogonalEdgeStyle;rounded=0;orthogonalLoop=1;jettySize=auto;html=1;entryX=0;entryY=0.5;entryDx=0;entryDy=0;startArrow=classic;startFill=1;" edge="1" parent="1" source="tUkSYDIY76sarr-EbFne-3" target="LNm-DCe0OfhqSC1g2N3G-1">
          <mxGeometry relative="1" as="geometry" />
        </mxCell>
        <mxCell id="tUkSYDIY76sarr-EbFne-3" value="DDU" style="shape=image;html=1;verticalLabelPosition=bottom;verticalAlign=top;imageAspect=1;aspect=fixed;image=img/clipart/Gear_128x128.png" parent="1" vertex="1">
          <mxGeometry x="520" y="168.25" width="52" height="61" as="geometry" />
        </mxCell>
        <mxCell id="tUkSYDIY76sarr-EbFne-31" value="Location" style="edgeStyle=none;rounded=0;orthogonalLoop=1;jettySize=auto;html=1;startArrow=none;startFill=0;" parent="1" source="tUkSYDIY76sarr-EbFne-4" target="tUkSYDIY76sarr-EbFne-3" edge="1">
          <mxGeometry relative="1" as="geometry" />
        </mxCell>
        <mxCell id="tUkSYDIY76sarr-EbFne-4" value="PIU" style="label;whiteSpace=wrap;html=1;image=img/clipart/Gear_128x128.png" parent="1" vertex="1">
          <mxGeometry x="200" y="169.25" width="140" height="60" as="geometry" />
        </mxCell>
        <mxCell id="tUkSYDIY76sarr-EbFne-5" value="PIU" style="label;whiteSpace=wrap;html=1;image=img/clipart/Gear_128x128.png" parent="1" vertex="1">
          <mxGeometry x="200" y="279.75" width="140" height="60" as="geometry" />
        </mxCell>
        <mxCell id="tUkSYDIY76sarr-EbFne-15" value="Location" style="edgeStyle=orthogonalEdgeStyle;rounded=0;orthogonalLoop=1;jettySize=auto;html=1;entryX=0.5;entryY=0;entryDx=0;entryDy=0;" parent="1" source="tUkSYDIY76sarr-EbFne-14" target="tUkSYDIY76sarr-EbFne-3" edge="1">
          <mxGeometry relative="1" as="geometry" />
        </mxCell>
        <mxCell id="tUkSYDIY76sarr-EbFne-14" value="PIU" style="label;whiteSpace=wrap;html=1;image=img/clipart/Gear_128x128.png" parent="1" vertex="1">
          <mxGeometry x="200" y="79.25" width="140" height="60" as="geometry" />
        </mxCell>
        <mxCell id="tUkSYDIY76sarr-EbFne-27" value="TCP/UDP" style="rounded=0;orthogonalLoop=1;jettySize=auto;html=1;startArrow=classic;startFill=1;" parent="1" source="tUkSYDIY76sarr-EbFne-17" target="tUkSYDIY76sarr-EbFne-14" edge="1">
          <mxGeometry relative="1" as="geometry" />
        </mxCell>
        <mxCell id="tUkSYDIY76sarr-EbFne-17" value="" style="outlineConnect=0;dashed=0;verticalLabelPosition=bottom;verticalAlign=top;align=center;html=1;shape=mxgraph.aws3.alexa_enabled_device;fillColor=#5294CF;gradientColor=none;" parent="1" vertex="1">
          <mxGeometry x="30" y="69.5" width="79.5" height="79.5" as="geometry" />
        </mxCell>
        <mxCell id="tUkSYDIY76sarr-EbFne-29" value="TCP/UDP" style="edgeStyle=none;rounded=0;orthogonalLoop=1;jettySize=auto;html=1;entryX=0;entryY=0.5;entryDx=0;entryDy=0;startArrow=classic;startFill=1;" parent="1" source="tUkSYDIY76sarr-EbFne-19" target="tUkSYDIY76sarr-EbFne-4" edge="1">
          <mxGeometry relative="1" as="geometry" />
        </mxCell>
        <mxCell id="tUkSYDIY76sarr-EbFne-19" value="" style="outlineConnect=0;dashed=0;verticalLabelPosition=bottom;verticalAlign=top;align=center;html=1;shape=mxgraph.aws3.alexa_enabled_device;fillColor=#5294CF;gradientColor=none;" parent="1" vertex="1">
          <mxGeometry x="30" y="159" width="79.5" height="79.5" as="geometry" />
        </mxCell>
        <mxCell id="tUkSYDIY76sarr-EbFne-30" value="TCP/UDP" style="edgeStyle=none;rounded=0;orthogonalLoop=1;jettySize=auto;html=1;entryX=0;entryY=0.5;entryDx=0;entryDy=0;startArrow=classic;startFill=1;" parent="1" source="tUkSYDIY76sarr-EbFne-21" target="tUkSYDIY76sarr-EbFne-5" edge="1">
          <mxGeometry relative="1" as="geometry" />
        </mxCell>
        <mxCell id="tUkSYDIY76sarr-EbFne-21" value="" style="outlineConnect=0;dashed=0;verticalLabelPosition=bottom;verticalAlign=top;align=center;html=1;shape=mxgraph.aws3.alexa_enabled_device;fillColor=#5294CF;gradientColor=none;" parent="1" vertex="1">
          <mxGeometry x="40" y="270" width="79.5" height="79.5" as="geometry" />
        </mxCell>
        <mxCell id="LNm-DCe0OfhqSC1g2N3G-1" value="Mission Computer" style="shape=image;html=1;verticalLabelPosition=bottom;verticalAlign=top;imageAspect=1;aspect=fixed;image=img/clipart/Gear_128x128.png" vertex="1" parent="1">
          <mxGeometry x="650" y="168.25" width="52" height="61" as="geometry" />
        </mxCell>
      </root>
    </mxGraphModel>
  </diagram>
</mxfile>
